<svg width="10" height="10" viewBox="0 0 10 10" fill="none" xmlns="http://www.w3.org/2000/svg">
<path d="M0.241121 10H2.0146C2.15611 10 2.29161 9.93396 2.38495 9.82075L4.99849 6.56603L7.61204 9.82075C7.70237 9.93396 7.83786 10 7.98239 10H9.75587C9.96062 10 10.072 9.75157 9.93954 9.58805L6.25709 5L9.94255 0.41195C10.075 0.248428 9.96363 0 9.75888 0H7.9854C7.84389 0 7.70839 0.0660381 7.61505 0.179246L4.99849 3.43396L2.38495 0.179246C2.29462 0.0660381 2.15913 0 2.0146 0H0.241121C0.0363733 0 -0.0750337 0.248428 0.0574501 0.41195L3.7399 5L0.0574501 9.58805C0.0277725 9.6245 0.0087332 9.66907 0.00259187 9.71649C-0.00354946 9.7639 0.00346515 9.81216 0.0228036 9.85553C0.0421421 9.8989 0.0729917 9.93557 0.11169 9.96118C0.150388 9.98679 0.19531 10.0003 0.241121 10Z" fill="#24292F"/>
</svg>
